<svg version="1.1" id="hrfSvg" xmlns="http://www.w3.org/2000/svg" xmlns:xlink="http://www.w3.org/1999/xlink" x="0px" y="0px"
	 width="595px" height="36px" viewBox="0 402.9 595.3 36" style="enable-background:new 0 402.9 595.3 36;" xml:space="preserve">

<g class="st0">
	<path class="st1" d="M21.4,421H8.9v12.4h-6v-29.5h6V416h12.4v-12.1h6v29.5h-6V421z"/>
	<path class="st1" d="M52.1,428.8c0,0.7,0,0.8,0.7,0.8h1.5v4c-0.9,0.2-1.8,0.3-3,0.3c-2.3,0-3.4-0.9-4.2-2.5H47
		c-1.4,1.2-4.2,2.6-6.7,2.6c-4.7,0-7.1-2.8-7.1-6.6c0-4.6,3-6.9,10.3-6.9h2.8v-1c0-2.6-2.3-3-3.6-3c-2.3,0-4.9,0.6-6.9,1.5l-1.4-4.5
		c2.2-1,5.4-1.9,8.6-1.9c6,0,9,3.1,9,8.5V428.8z M44.2,424.4c-3.9,0-5.3,1-5.3,2.6c0,1.7,1,2.5,2.8,2.5c1.5,0,3.6-0.6,4.8-1.4v-3.6
		H44.2z"/>
	<path class="st1" d="M69.2,411.8c2.6,0,5.1,0.7,6.5,1.3l-1.2,4.5c-1.2-0.4-2.8-0.9-4.6-0.9c-3.2,0-5.8,1.7-5.8,6.3
		c0,4.6,2.6,6.3,5.8,6.3c1.9,0,3.4-0.5,4.6-0.9l1.2,4.5c-1.4,0.5-4,1.3-6.5,1.3c-7.1,0-11.1-4.3-11.1-11.1
		C58.1,416.2,62.1,411.8,69.2,411.8z"/>
	<path class="st1" d="M85.2,424.6c0.2,3,2.1,4.7,5.3,4.7c2.4,0,4.6-0.6,6.7-1.3l1.3,4.2c-2.1,1-5.1,1.8-8.5,1.8
		c-7.3,0-10.8-5-10.8-11.2c0-6,3.6-11.1,10.5-11.1c6.8,0,9.8,4.1,9.8,9c0,1.3-0.2,3-0.3,3.8H85.2z M94.1,421c0-0.2,0-0.4,0-0.7
		c0-2.3-1.1-4.3-4.4-4.3c-3,0-4.4,2.4-4.6,4.9H94.1z"/>
	<path class="st1" d="M109.4,412.5l0.7,2h0.1c1.2-1.1,3.4-2.7,6.7-2.7c3.1,0,5.1,1.2,6.4,3.2h0.1c1.3-1.1,3.3-3.2,7.6-3.2
		c5.1,0,7.7,3.3,7.7,8.4v13.2H133v-12.6c0-2.7-0.9-4.2-3.6-4.2c-2.1,0-3.7,1.2-4.7,2c0.1,0.5,0.2,1,0.2,1.6v13.2h-5.9v-12.6
		c0-2.6-0.9-4.2-3.7-4.2c-2.1,0-3.6,1-4.6,1.8v15h-5.9v-20.9H109.4z"/>
	<path class="st1" d="M155,434.1c-7.2,0-11-5-11-11.1c0-6.1,3.9-11.1,11-11.1c7.3,0,11.1,5,11.1,11.1
		C166.1,429,162.3,434.1,155,434.1z M155,429.2c3.1,0,5.1-2.1,5.1-6.3c0-4.2-2-6.3-5.1-6.3c-3,0-5,2.1-5,6.3
		C150,427.2,152,429.2,155,429.2z"/>
	<path class="st1" d="M171.8,427.9c2,1,4.4,1.8,6.7,1.8s3.3-0.7,3.3-2c0-1.3-1-1.7-2.9-2.2l-2.7-0.7c-2.9-0.7-5.7-2.3-5.7-6.2
		c0-4.1,3.3-6.7,8.7-6.7c3.2,0,5.4,0.5,7.8,1.5l-1.6,4.2c-1.9-0.7-4-1.3-6-1.3c-2.2,0-3.2,0.7-3.2,1.9c0,1.2,1,1.7,2.7,2.1l2.6,0.7
		c3.3,0.8,5.9,2.6,5.9,6.3c0,4.3-3.5,6.9-8.8,6.9c-3.6,0-6.2-0.7-8.6-2L171.8,427.9z"/>
	<path class="st1" d="M208.5,412.5l0.8,2.5h0.1c0.8-1.3,2.5-3.2,5.3-3.2c0.7,0,1.6,0.1,2.1,0.3l-0.5,4.9c-0.7-0.1-1.6-0.2-2.1-0.2
		c-2.4,0-3.8,1.1-4.6,2v14.5h-5.9v-20.9H208.5z"/>
	<path class="st1" d="M225.5,424.6c0.2,3,2.1,4.7,5.3,4.7c2.4,0,4.6-0.6,6.7-1.3l1.3,4.2c-2.1,1-5.1,1.8-8.5,1.8
		c-7.3,0-10.8-5-10.8-11.2c0-6,3.6-11.1,10.5-11.1c6.8,0,9.8,4.1,9.8,9c0,1.3-0.2,3-0.3,3.8H225.5z M234.4,421c0-0.2,0-0.4,0-0.7
		c0-2.3-1.1-4.3-4.4-4.3c-3,0-4.4,2.4-4.6,4.9H234.4z"/>
	<path class="st1" d="M262.6,428.8c0,0.7,0,0.8,0.7,0.8h1.5v4c-0.9,0.2-1.8,0.3-3,0.3c-2.3,0-3.4-0.9-4.2-2.5h-0.1
		c-1.4,1.2-4.2,2.6-6.7,2.6c-4.7,0-7.1-2.8-7.1-6.6c0-4.6,3-6.9,10.3-6.9h2.8v-1c0-2.6-2.3-3-3.6-3c-2.3,0-4.9,0.6-6.9,1.5l-1.4-4.5
		c2.2-1,5.4-1.9,8.6-1.9c6,0,9,3.1,9,8.5V428.8z M254.7,424.4c-3.9,0-5.3,1-5.3,2.6c0,1.7,1,2.5,2.8,2.5c1.5,0,3.6-0.6,4.8-1.4v-3.6
		H254.7z"/>
	<path class="st1" d="M275.4,403v25.7c0,0.7,0,0.8,0.7,0.8h2.3v4c-0.9,0.2-2.2,0.3-3.5,0.3c-4,0-5.4-2-5.4-6.1V403H275.4z"/>
	<path class="st1" d="M286.2,402.4c2.1,0,3.4,1.3,3.4,3.2s-1.3,3.2-3.4,3.2c-2,0-3.4-1.3-3.4-3.2S284.2,402.4,286.2,402.4z
		 M283.3,433.4v-20.9h5.9v20.9H283.3z"/>
	<path class="st1" d="M315.6,403v30.4h-4.3l-0.8-1.9h-0.1c-1.5,1.1-3.5,2.5-6.6,2.5c-6,0-9.2-5-9.2-11.1c0-6.1,3.1-11.1,9.2-11.1
		c2.9,0,4.7,1.3,5.9,2.2h0.1v-11H315.6z M309.8,417.9c-1.2-0.7-2.7-1.3-4.2-1.3c-3.5,0-5,2.6-5,6.3c0,3.7,1.5,6.3,5,6.3
		c1.5,0,3-0.6,4.2-1.3V417.9z"/>
	<path class="st1" d="M339.6,428.8c0,0.7,0,0.8,0.7,0.8h1.5v4c-0.9,0.2-1.8,0.3-3,0.3c-2.3,0-3.4-0.9-4.2-2.5h-0.1
		c-1.4,1.2-4.2,2.6-6.7,2.6c-4.7,0-7.1-2.8-7.1-6.6c0-4.6,3-6.9,10.3-6.9h2.8v-1c0-2.6-2.3-3-3.6-3c-2.3,0-4.9,0.6-6.9,1.5l-1.4-4.5
		c2.2-1,5.4-1.9,8.6-1.9c6,0,9,3.1,9,8.5V428.8z M331.7,424.4c-3.9,0-5.3,1-5.3,2.6c0,1.7,1,2.5,2.8,2.5c1.5,0,3.6-0.6,4.8-1.4v-3.6
		H331.7z"/>
	<path class="st1" d="M366.7,403v30.4h-4.3l-0.8-1.9h-0.1c-1.5,1.1-3.5,2.5-6.6,2.5c-6,0-9.2-5-9.2-11.1c0-6.1,3.1-11.1,9.2-11.1
		c2.9,0,4.7,1.3,5.9,2.2h0.1v-11H366.7z M360.8,417.9c-1.2-0.7-2.7-1.3-4.2-1.3c-3.5,0-5,2.6-5,6.3c0,3.7,1.5,6.3,5,6.3
		c1.5,0,3-0.6,4.2-1.3V417.9z"/>
	<path class="st1" d="M389,424.6c0.2,3,2.1,4.7,5.3,4.7c2.4,0,4.6-0.6,6.7-1.3l1.3,4.2c-2.1,1-5.1,1.8-8.5,1.8
		c-7.3,0-10.8-5-10.8-11.2c0-6,3.6-11.1,10.5-11.1c6.8,0,9.8,4.1,9.8,9c0,1.3-0.2,3-0.3,3.8H389z M397.9,421c0-0.2,0-0.4,0-0.7
		c0-2.3-1.1-4.3-4.4-4.3c-3,0-4.4,2.4-4.6,4.9H397.9z"/>
	<path class="st1" d="M414.4,403v25.7c0,0.7,0,0.8,0.7,0.8h2.3v4c-0.9,0.2-2.2,0.3-3.5,0.3c-4,0-5.4-2-5.4-6.1V403H414.4z"/>
	<path class="st1" d="M434.6,433.4v-16.5h-3.7v-3.2l3.7-1.3v-2.8c0-4.8,2.8-6.9,7.1-6.9c1.2,0,2.8,0.1,3.7,0.3v4.8
		c-0.8-0.2-2.1-0.3-2.8-0.3c-1.6,0-2.2,0.4-2.2,2.3v2.5h5.2v4.5h-5.2v16.5H434.6z"/>
	<path class="st1" d="M456,412.5v12.6c0,2.7,1,4.2,3.6,4.2c2,0,3.5-1.1,4.4-1.8v-15h5.9v20.9h-4.7l-0.8-2h-0.1
		c-1.2,1-3.3,2.7-6.5,2.7c-5,0-7.6-3.3-7.6-8.4v-13.2H456z"/>
	<path class="st1" d="M484.2,407.6v4.9h6v4.5h-6v9.9c0,1.5,0.8,2.4,2.5,2.4c1,0,2.4-0.3,3.4-0.6v4.8c-0.9,0.2-2.9,0.7-4.9,0.7
		c-4.6,0-6.8-1.9-6.8-6.1v-11h-3.8v-3.2l3.8-1.3v-4.9H484.2z"/>
	<path class="st1" d="M501,412.5v12.6c0,2.7,1,4.2,3.6,4.2c2,0,3.5-1.1,4.4-1.8v-15h5.9v20.9h-4.7l-0.8-2h-0.1
		c-1.2,1-3.3,2.7-6.5,2.7c-5,0-7.6-3.3-7.6-8.4v-13.2H501z"/>
	<path class="st1" d="M526,412.5l0.8,2.5h0.1c0.8-1.3,2.5-3.2,5.3-3.2c0.7,0,1.6,0.1,2.1,0.3l-0.5,4.9c-0.7-0.1-1.6-0.2-2.1-0.2
		c-2.4,0-3.8,1.1-4.6,2v14.5h-5.9v-20.9H526z"/>
	<path class="st1" d="M548.1,434.1c-7.2,0-11-5-11-11.1c0-6.1,3.9-11.1,11-11.1c7.3,0,11.1,5,11.1,11.1
		C559.2,429,555.4,434.1,548.1,434.1z M548.1,429.2c3.1,0,5.1-2.1,5.1-6.3c0-4.2-2-6.3-5.1-6.3c-3,0-5,2.1-5,6.3
		C543.1,427.2,545.1,429.2,548.1,429.2z"/>
	<path class="st1" d="M567.7,426.6c2.3,0,3.7,1.5,3.7,3.7s-1.4,3.7-3.7,3.7c-2.3,0-3.7-1.5-3.7-3.7S565.4,426.6,567.7,426.6z"/>
</g>
</svg>
